<svg t="1624771590174" class="icon" viewBox="0 0 1024 1024" version="1.1" xmlns="http://www.w3.org/2000/svg" p-id="6049" width="200" height="200"><path d="M789.599373 743.631962a397.954865 397.954865 0 0 0-46.25299-170.354323c-15.227657-83.548535-171.005774-94.623195-274.830708-92.831706C364.690741 478.654444 209.31978 489.729104 193.766398 573.277639A396.814827 396.814827 0 0 0 147.513408 743.631962C146.129075 780.031763 141.324627 912.031934 225.606044 985.320123c58.54912 51.383163 427.595866 51.383163 486.144986 0 83.87426-73.288189 79.151244-205.28836 77.848343-241.688161z" fill="#FCF0E6" p-id="6050"></path><path d="M412.002338 833.695003c-26.058023-47.148735-73.288189-79.314107-100.160525-126.788566-36.236938-64.575037-57.001925-139.817578-73.288188-211.721435-1.22147-4.885879-2.280077-9.771759-3.420116-14.8205 0-1.384332-0.570019-2.931528-0.977176-4.967311s-2.361508-4.397291-3.420115-2.931527a23.126495 23.126495 0 0 0-1.791489 2.931527c-0.977176 1.791489-1.954352 3.745841-3.012959 5.863055s-2.035783 4.071566-2.850096 5.618762a407.970918 407.970918 0 0 0-31.351059 85.09573c-5.455898 20.683556-9.85319 41.611405-13.354737 59.363433-10.423209 52.197477-22.719339 129.394369-9.771758 196.493777a212.617179 212.617179 0 0 0 49.591674 101.381995c39.738485 41.367111 105.127835 65.145057 155.696686 31.921077 41.855699-27.686649 63.923587-80.698439 38.109858-127.440017z" fill="#FF6E83" p-id="6051"></path><path d="M389.690156 839.883784c-23.45222-48.858793-69.216623-83.059947-93.320294-131.91874-32.572528-66.366527-49.34738-142.586243-62.213529-215.14155-0.895745-4.967311-1.791489-9.934621-2.605802-14.983363 0-1.384332-0.407157-3.012959-0.732882-5.048742s-2.117214-4.478723-3.257253-3.012959A20.35783 20.35783 0 0 0 225.606044 472.302801l-3.338684 5.700193c-1.140038 2.117214-2.198646 3.990135-3.09439 5.455898a401.049255 401.049255 0 0 0-35.504056 83.385673c-6.514506 20.35783-12.051835 40.71566-16.286264 58.549119-13.110443 51.627457-29.559569 128.010036-20.194968 195.43517a212.617179 212.617179 0 0 0 44.135776 103.824935c37.539839 43.402894 101.544857 70.519524 153.742334 40.145641 43.402894-25.080847 67.83229-76.789736 44.624364-124.915646z" fill="#FCF0E6" p-id="6052"></path><path d="M745.870754 434.925825c-1.547195 51.79032-36.806957 92.668843-79.639832 92.587412l-383.215796-0.895745c-42.832875 0-77.929774-41.204248-79.314107-92.994568 0-11.400385-0.488588-22.963632-0.488588-34.608312q0 25.89516 0.488588 51.301732c1.384332 51.708889 36.481232 92.831706 79.314107 92.913138L441.480476 561.877254a307.728962 307.728962 0 0 0 69.786642 0l154.71951-17.507734c42.832875 0 78.092637-40.71566 79.639832-92.587412 0.570019-18.892066 0.732882-38.109858 0.65145-57.490512 0.488588 13.517599 0 27.11663-0.407156 40.634229z" fill="#FF6E83" p-id="6053"></path><path d="M768.834386 1.141179s-81.024164-2.117214-121.739825 136.723187c0 0-3.09439-0.407157-8.143132-0.895744a971.394227 971.394227 0 0 0-162.862642-9.608896 982.224592 982.224592 0 0 0-162.862641 8.957445l-8.550289 0.814313C263.390177-1.790349 182.366013 0.00114 182.366013 0.00114S140.591746 235.256226 147.02482 433.622924a96.007527 96.007527 0 0 0 95.844665 92.994568l463.181353 0.895745a96.088959 96.088959 0 0 0 96.496115-92.587412C809.712909 236.559127 768.834386 1.141179 768.834386 1.141179z" fill="#FCF0E6" p-id="6054"></path><path d="M472.831535 431.587141h-0.895745c-12.784717-2.931528-31.758215-14.087619-31.758215-32.572529a5.781624 5.781624 0 0 1 11.563248 0c0 11.563248 12.94758 19.13636 21.742162 21.416438A23.370789 23.370789 0 0 0 494.73656 399.014612a5.781624 5.781624 0 1 1 11.563248 0 35.096899 35.096899 0 0 1-32.572529 32.979685z" fill="#FF6E83" p-id="6055"></path><path d="M473.075829 463.182493a5.781624 5.781624 0 0 1-5.781624-5.781624v-31.432489a5.781624 5.781624 0 1 1 11.563247 0v31.432489a5.700192 5.700192 0 0 1-5.781623 5.781624zM289.773925 309.440159a56.024749 56.024749 0 0 1 78.336931 11.318954 10.423209 10.423209 0 0 0 8.957445 4.31586 10.260346 10.260346 0 0 0 6.107349-2.117214 10.748934 10.748934 0 0 0 2.198646-15.064795 77.359755 77.359755 0 0 0-51.057438-30.373882 76.219716 76.219716 0 0 0-57.001925 14.657637 10.748934 10.748934 0 0 0-2.850096 15.064795 10.911797 10.911797 0 0 0 15.309088 2.198645zM557.845834 317.583291a11.318954 11.318954 0 0 0 6.270211 1.791489 10.993228 10.993228 0 0 0 8.713152-4.885879 56.024749 56.024749 0 0 1 77.522617-16.286264 10.748934 10.748934 0 1 0 11.72611-17.996322 76.301148 76.301148 0 0 0-58.223394-11.074659 77.278324 77.278324 0 0 0-48.858793 33.468272A10.830366 10.830366 0 0 0 557.845834 317.583291zM190.264851 22.964773C186.51901 49.755677 175.444351 131.024135 175.281488 159.199372a7.654544 7.654544 0 0 0 9.120308 7.328819c21.660731-3.257253 78.744087-12.621855 102.033445-22.393613a7.328819 7.328819 0 0 0 4.31586-9.364602C282.607969 112.457794 250.849754 35.098039 201.176648 16.938855a8.143132 8.143132 0 0 0-10.911797 6.025918zM760.935548 24.430536c3.582978 26.790905 14.331912 108.059363 14.413344 136.316031a8.143132 8.143132 0 0 1-9.20174 7.247388c-21.5793-3.338684-78.662656-12.94758-101.952013-22.80077a7.41025 7.41025 0 0 1-4.234429-9.364602c8.143132-22.312182 40.71566-99.509074 90.307335-117.505396a8.143132 8.143132 0 0 1 10.667503 6.107349z" fill="#FF6E83" p-id="6056"></path><path d="M611.997662 397.141692c25.976591 47.067303 73.288189 79.232675 100.160525 126.707135 36.236938 64.575037 57.001925 139.817578 73.288188 211.721434 1.22147 4.885879 2.280077 9.771759 3.420116 14.820501 0 1.384332 0.570019 2.931528 0.977176 5.048742s2.361508 4.31586 3.420115 2.850096a23.126495 23.126495 0 0 0 1.791489-2.931528c0.977176-1.791489 1.954352-3.827272 3.012959-5.863055s2.035783-4.071566 2.850096-5.618761A407.970918 407.970918 0 0 0 832.269385 658.780526c5.374467-20.683556 9.771759-41.611405 13.354737-59.363433 10.341778-52.197477 22.80077-129.394369 9.771758-196.493777A213.594355 213.594355 0 0 0 805.885637 301.297027c-39.819916-41.367111-105.209267-65.145057-155.778117-31.921078C608.333253 297.306893 586.183933 350.15582 611.997662 397.141692z" fill="#FF6E83" p-id="6057"></path><path d="M634.309844 390.87148c23.45222 48.858793 69.216623 83.059947 93.238862 131.91874 32.572528 66.366527 49.428812 142.667674 62.294961 215.14155 0.895745 4.967311 1.791489 9.934621 2.605802 14.983363 0 1.384332 0 3.012959 0.732882 5.048742s2.117214 4.478723 3.257253 3.012959a25.569435 25.569435 0 0 0 1.954352-2.687234l3.338684-5.781624c1.140038-2.117214 2.198646-3.908703 3.09439-5.374467a403.899352 403.899352 0 0 0 35.504056-83.22281c6.514506-20.35783 12.051835-40.71566 16.286264-58.54912C869.972087 553.734122 886.421213 477.351543 877.056611 409.600684a213.268629 213.268629 0 0 0-44.135775-103.906365C795.625291 262.372856 731.375978 235.256226 679.178502 265.630109c-43.321463 25.406572-68.158016 77.115461-44.868658 125.241371z" fill="#FCF0E6" p-id="6058"></path><path d="M685.85587 348.690056C697.907706 350.15582 725.431492 374.585216 725.431492 374.585216s-31.513921 19.054929-43.810051 17.914891a21.986457 21.986457 0 0 1 4.071566-43.810051zM732.597448 314.244607c8.143132 9.283171 9.771759 46.171559 9.771759 46.171559s-35.829781-8.713151-43.647188-18.403478a21.986457 21.986457 0 1 1 33.875429-28.093806zM782.433417 309.440159c-1.140038 12.051835-25.813729 39.494191-25.813729 39.494191s-19.217792-31.921078-17.996322-43.972913a22.067888 22.067888 0 0 1 43.891482 4.071566zM476.333081 544.206657a63.842156 63.842156 0 1 0 65.877939 61.724942 63.842156 63.842156 0 0 0-65.877939-61.724942z m-40.71566 36.888389a20.276399 20.276399 0 0 1 20.846418-16.286264q21.905025-1.140038 23.370789 32.572528c0 11.481816-3.257253 17.589165-9.690327 18.322047-3.420115-0.732882-4.804448-3.745841-4.31586-9.038876a33.386842 33.386842 0 0 0-1.140038-13.599031c-1.87292-5.048742-4.560154-7.247388-8.143133-6.514506-4.560154 0.732882-6.595937 4.31586-6.107349 10.830366a56.187611 56.187611 0 0 0 0 6.107349 23.207926 23.207926 0 0 1 0 8.143132c-0.977176 5.293036-3.501547 8.143132-7.573112 8.143132s-7.084525-2.850096-8.143133-8.143132a92.668843 92.668843 0 0 1-0.732881-15.146226 103.58064 103.58064 0 0 1 1.547195-15.390519z m26.953767 50.976007c-2.850096 10.260346-8.143132 15.471951-15.471951 15.471951s-11.481816-4.478723-12.214698-10.423209a13.110443 13.110443 0 0 1 11.888973-14.006188 14.006187 14.006187 0 0 0 8.143132-14.739069 16.286264 16.286264 0 0 0 0-2.524371 27.76808 27.76808 0 0 1-1.058607-8.143132c0.488588-3.827272 1.954352-5.781624 4.31586-5.781624s4.071566 1.791489 5.048742 5.455899a115.87677 115.87677 0 0 1-0.732882 34.689743z m16.856284 13.273305a9.120308 9.120308 0 0 1-12.94758-3.175822 12.051835 12.051835 0 0 1 0-14.006187c3.827272-3.664409 8.143132-2.44294 13.680462 3.582978 3.908703 5.700192 3.501547 10.260346-0.814314 13.599031z m37.051251-51.383164a27.035199 27.035199 0 0 0-2.524371 17.263441 83.87426 83.87426 0 0 1 2.117214 17.996321c-0.895745 12.214698-5.455898 18.403479-13.599031 18.647773s-13.354737-3.582978-14.006187-9.283171a13.599031 13.599031 0 0 1 4.967311-8.143132 11.807542 11.807542 0 0 0 4.31586-8.143132q1.140038-5.700192-0.732882-6.840231a3.582978 3.582978 0 0 0-2.850096 1.384333c-0.488588 0.732882-1.22147 1.791489-2.117215 3.257252a31.106765 31.106765 0 0 1-3.257252 4.31586 10.016052 10.016052 0 0 1-6.433075 3.582979c-6.270212-1.384332-8.143132-5.130173-5.048742-11.156091a11.318954 11.318954 0 0 0 1.791489-2.524371 46.334422 46.334422 0 0 0 7.084525-10.586072 13.191874 13.191874 0 0 0 1.384333-5.455899 5.863055 5.863055 0 0 0-1.791489-4.96731 13.110443 13.110443 0 0 1-3.908704-8.63172 8.876014 8.876014 0 0 1 5.048742-6.514506c2.605802-0.895745 4.071566-2.361508 4.31586-4.31586a9.527465 9.527465 0 0 1 10.016053-8.143132 9.283171 9.283171 0 0 1 8.143132 7.573113 4.397291 4.397291 0 0 0 2.442939 3.582978 0.977176 0.977176 0 0 1 0.732882 0 8.63172 8.63172 0 0 1 6.188781 8.876014 13.761893 13.761893 0 0 1-2.361509 8.224563z" fill="#F7999F" p-id="6059"></path></svg>